<svg width="248" height="50" viewBox="0 0 248 50" fill="none" xmlns="http://www.w3.org/2000/svg">
<path fill-rule="evenodd" clip-rule="evenodd" d="M3 27.625C3 27.2798 3.27982 27 3.625 27H17.375C17.7202 27 18 27.2798 18 27.625C18 27.9702 17.7202 28.25 17.375 28.25H3.625C3.27982 28.25 3 27.9702 3 27.625Z" fill="#6B6B6B"/>
<path fill-rule="evenodd" clip-rule="evenodd" d="M3 22.625C3 22.2798 3.27982 22 3.625 22H17.375C17.7202 22 18 22.2798 18 22.625C18 22.9702 17.7202 23.25 17.375 23.25H3.625C3.27982 23.25 3 22.9702 3 22.625Z" fill="#6B6B6B"/>
<path d="M229.463 37C229.223 37 229.019 36.928 228.851 36.784C228.707 36.616 228.635 36.412 228.635 36.172V35.02C228.635 34.804 228.695 34.564 228.815 34.3C228.935 34.036 229.175 33.748 229.535 33.436L237.167 25.804C238.391 24.772 239.351 23.896 240.047 23.176C240.767 22.432 241.271 21.724 241.559 21.052C241.871 20.38 242.027 19.684 242.027 18.964C242.027 17.596 241.643 16.516 240.875 15.724C240.107 14.908 238.967 14.5 237.455 14.5C236.495 14.5 235.667 14.704 234.971 15.112C234.275 15.496 233.723 16.036 233.315 16.732C232.931 17.404 232.679 18.172 232.559 19.036C232.511 19.348 232.379 19.564 232.163 19.684C231.971 19.804 231.791 19.864 231.623 19.864H229.751C229.535 19.864 229.355 19.804 229.211 19.684C229.067 19.54 228.995 19.372 228.995 19.18C229.019 18.268 229.211 17.356 229.571 16.444C229.931 15.508 230.459 14.668 231.155 13.924C231.875 13.18 232.751 12.58 233.783 12.124C234.839 11.644 236.063 11.404 237.455 11.404C239.351 11.404 240.899 11.752 242.099 12.448C243.323 13.12 244.223 14.02 244.799 15.148C245.375 16.276 245.663 17.512 245.663 18.856C245.663 19.912 245.483 20.884 245.123 21.772C244.763 22.636 244.235 23.488 243.539 24.328C242.867 25.144 242.027 25.984 241.019 26.848L234.107 33.868H245.339C245.603 33.868 245.807 33.94 245.951 34.084C246.119 34.228 246.203 34.432 246.203 34.696V36.172C246.203 36.412 246.119 36.616 245.951 36.784C245.807 36.928 245.603 37 245.339 37H229.463Z" fill="#EBEBEB"/>
</svg>
